<svg xmlns="http://www.w3.org/2000/svg" xmlns:xlink="http://www.w3.org/1999/xlink" width="563" zoomAndPan="magnify" viewBox="0 0 422.25 330.749995" height="441" preserveAspectRatio="xMidYMid meet" version="1.0"><defs><g/><clipPath id="da2f9dd507"><path d="M 56.535156 0.167969 L 367.121094 0.167969 L 367.121094 310.753906 L 56.535156 310.753906 Z M 56.535156 0.167969 " clip-rule="nonzero"/></clipPath><clipPath id="321869ed2f"><path d="M 211.828125 0.167969 C 126.0625 0.167969 56.535156 69.695312 56.535156 155.460938 C 56.535156 241.226562 126.0625 310.753906 211.828125 310.753906 C 297.59375 310.753906 367.121094 241.226562 367.121094 155.460938 C 367.121094 69.695312 297.59375 0.167969 211.828125 0.167969 Z M 211.828125 0.167969 " clip-rule="nonzero"/></clipPath><clipPath id="622af6a2f1"><path d="M 68.652344 12.28125 L 355.007812 12.28125 L 355.007812 298.640625 L 68.652344 298.640625 Z M 68.652344 12.28125 " clip-rule="nonzero"/></clipPath><clipPath id="874a0fa148"><path d="M 211.828125 12.28125 C 132.753906 12.28125 68.652344 76.386719 68.652344 155.460938 C 68.652344 234.535156 132.753906 298.640625 211.828125 298.640625 C 290.90625 298.640625 355.007812 234.535156 355.007812 155.460938 C 355.007812 76.386719 290.90625 12.28125 211.828125 12.28125 Z M 211.828125 12.28125 " clip-rule="nonzero"/></clipPath><clipPath id="40966a7d6b"><path d="M 68.652344 12.28125 L 354.640625 12.28125 L 354.640625 298.273438 L 68.652344 298.273438 Z M 68.652344 12.28125 " clip-rule="nonzero"/></clipPath><clipPath id="04f4bcf5ea"><path d="M 211.828125 12.28125 C 132.753906 12.28125 68.652344 76.382812 68.652344 155.460938 C 68.652344 234.535156 132.753906 298.636719 211.828125 298.636719 C 290.902344 298.636719 355.003906 234.535156 355.003906 155.460938 C 355.003906 76.382812 290.902344 12.28125 211.828125 12.28125 Z M 211.828125 12.28125 " clip-rule="nonzero"/></clipPath><clipPath id="3ab7a47db4"><path d="M 168.546875 23.242188 L 235 23.242188 L 235 89.875 L 168.546875 89.875 Z M 168.546875 23.242188 " clip-rule="nonzero"/></clipPath><clipPath id="423ed72e42"><path d="M 221 56 L 255.394531 56 L 255.394531 89.875 L 221 89.875 Z M 221 56 " clip-rule="nonzero"/></clipPath><clipPath id="c302e1ef19"><path d="M 168.546875 23.242188 L 232 23.242188 L 232 86.878906 L 168.546875 86.878906 Z M 168.546875 23.242188 " clip-rule="nonzero"/></clipPath><clipPath id="b0e9c6ccbd"><path d="M 219 54 L 250.902344 54 L 250.902344 86.878906 L 219 86.878906 Z M 219 54 " clip-rule="nonzero"/></clipPath></defs><g clip-path="url(#da2f9dd507)"><g clip-path="url(#321869ed2f)"><path fill="#f0dfc8" d="M 56.535156 0.167969 L 367.121094 0.167969 L 367.121094 310.753906 L 56.535156 310.753906 Z M 56.535156 0.167969 " fill-opacity="1" fill-rule="nonzero"/></g></g><g clip-path="url(#622af6a2f1)"><g clip-path="url(#874a0fa148)"><path fill="#e16539" d="M 68.652344 12.28125 L 355.007812 12.28125 L 355.007812 298.640625 L 68.652344 298.640625 Z M 68.652344 12.28125 " fill-opacity="1" fill-rule="nonzero"/></g></g><g clip-path="url(#40966a7d6b)"><g clip-path="url(#04f4bcf5ea)"><path stroke-linecap="butt" transform="matrix(0.74867, 0, 0, 0.74867, 68.650394, 12.281753)" fill="none" stroke-linejoin="miter" d="M 191.242732 -0.000671287 C 85.623167 -0.000671287 0.00260431 85.619892 0.00260431 191.244674 C 0.00260431 296.864239 85.623167 382.484802 191.242732 382.484802 C 296.862297 382.484802 382.48286 296.864239 382.48286 191.244674 C 382.48286 85.619892 296.862297 -0.000671287 191.242732 -0.000671287 Z M 191.242732 -0.000671287 " stroke="#303030" stroke-width="18" stroke-opacity="1" stroke-miterlimit="4"/></g></g><g clip-path="url(#3ab7a47db4)"><path fill="#f0dfc8" d="M 202.210938 40.894531 C 202.308594 41.8125 202.488281 42.714844 202.742188 43.605469 C 202.992188 44.492188 203.320312 45.351562 203.71875 46.1875 C 204.117188 47.019531 204.585938 47.8125 205.121094 48.566406 C 205.652344 49.320312 206.246094 50.023438 206.902344 50.679688 C 207.554688 51.332031 208.257812 51.925781 209.011719 52.457031 C 209.765625 52.992188 210.558594 53.460938 211.390625 53.859375 C 212.226562 54.257812 213.085938 54.585938 213.972656 54.839844 C 214.863281 55.09375 215.765625 55.269531 216.683594 55.367188 C 222.53125 55.953125 228.394531 56.21875 234.269531 56.171875 C 228.394531 56.121094 222.53125 56.390625 216.683594 56.972656 C 215.765625 57.074219 214.863281 57.25 213.972656 57.503906 C 213.085938 57.757812 212.226562 58.082031 211.390625 58.480469 C 210.558594 58.882812 209.765625 59.347656 209.011719 59.882812 C 208.257812 60.417969 207.554688 61.011719 206.902344 61.664062 C 206.246094 62.316406 205.652344 63.019531 205.121094 63.773438 C 204.585938 64.527344 204.117188 65.320312 203.71875 66.15625 C 203.320312 66.988281 202.992188 67.847656 202.742188 68.738281 C 202.488281 69.625 202.308594 70.527344 202.210938 71.449219 C 201.628906 77.292969 201.359375 83.15625 201.40625 89.03125 C 201.457031 83.15625 201.1875 77.292969 200.605469 71.449219 C 200.507812 70.527344 200.328125 69.625 200.074219 68.738281 C 199.824219 67.847656 199.496094 66.988281 199.097656 66.15625 C 198.695312 65.320312 198.230469 64.527344 197.695312 63.773438 C 197.164062 63.019531 196.570312 62.316406 195.914062 61.664062 C 195.261719 61.007812 194.558594 60.417969 193.804688 59.882812 C 193.050781 59.347656 192.257812 58.882812 191.425781 58.480469 C 190.589844 58.082031 189.730469 57.757812 188.84375 57.503906 C 187.953125 57.25 187.050781 57.070312 186.132812 56.972656 C 180.285156 56.390625 174.421875 56.121094 168.546875 56.171875 C 174.421875 56.21875 180.285156 55.953125 186.132812 55.367188 C 187.050781 55.269531 187.953125 55.089844 188.84375 54.839844 C 189.730469 54.585938 190.589844 54.257812 191.425781 53.859375 C 192.257812 53.460938 193.050781 52.992188 193.804688 52.457031 C 194.558594 51.925781 195.261719 51.332031 195.914062 50.679688 C 196.570312 50.023438 197.164062 49.320312 197.695312 48.566406 C 198.230469 47.8125 198.695312 47.019531 199.097656 46.1875 C 199.496094 45.351562 199.824219 44.492188 200.074219 43.605469 C 200.328125 42.714844 200.507812 41.8125 200.605469 40.894531 C 201.1875 35.046875 201.457031 29.1875 201.40625 23.308594 C 201.359375 29.1875 201.628906 35.046875 202.210938 40.894531 Z M 202.210938 40.894531 " fill-opacity="1" fill-rule="nonzero"/></g><g clip-path="url(#423ed72e42)"><path fill="#f0dfc8" d="M 238.894531 65.070312 C 238.945312 65.535156 239.035156 65.992188 239.164062 66.441406 C 239.292969 66.890625 239.457031 67.324219 239.660156 67.746094 C 239.863281 68.167969 240.097656 68.570312 240.367188 68.953125 C 240.640625 69.332031 240.941406 69.6875 241.269531 70.019531 C 241.601562 70.351562 241.957031 70.652344 242.339844 70.921875 C 242.71875 71.191406 243.121094 71.425781 243.542969 71.628906 C 243.964844 71.832031 244.398438 71.996094 244.851562 72.125 C 245.300781 72.253906 245.757812 72.34375 246.222656 72.394531 C 249.179688 72.6875 252.144531 72.824219 255.117188 72.800781 C 252.144531 72.773438 249.179688 72.910156 246.222656 73.203125 C 245.757812 73.253906 245.300781 73.34375 244.851562 73.472656 C 244.398438 73.601562 243.964844 73.765625 243.542969 73.96875 C 243.121094 74.171875 242.71875 74.40625 242.339844 74.675781 C 241.957031 74.949219 241.601562 75.246094 241.269531 75.578125 C 240.941406 75.910156 240.640625 76.265625 240.367188 76.648438 C 240.097656 77.027344 239.863281 77.429688 239.660156 77.851562 C 239.457031 78.273438 239.292969 78.707031 239.164062 79.15625 C 239.035156 79.609375 238.945312 80.066406 238.894531 80.53125 C 238.601562 83.488281 238.464844 86.453125 238.492188 89.429688 C 238.515625 86.453125 238.378906 83.488281 238.085938 80.53125 C 238.035156 80.066406 237.945312 79.609375 237.816406 79.15625 C 237.6875 78.707031 237.523438 78.273438 237.320312 77.851562 C 237.117188 77.429688 236.882812 77.027344 236.613281 76.648438 C 236.34375 76.265625 236.042969 75.910156 235.710938 75.578125 C 235.378906 75.246094 235.023438 74.949219 234.644531 74.675781 C 234.261719 74.40625 233.859375 74.171875 233.4375 73.96875 C 233.015625 73.765625 232.582031 73.601562 232.132812 73.472656 C 231.683594 73.34375 231.222656 73.253906 230.761719 73.203125 C 227.800781 72.910156 224.835938 72.773438 221.863281 72.800781 C 224.835938 72.824219 227.800781 72.6875 230.761719 72.394531 C 231.222656 72.34375 231.683594 72.253906 232.132812 72.125 C 232.582031 71.996094 233.015625 71.832031 233.4375 71.628906 C 233.859375 71.425781 234.261719 71.191406 234.644531 70.921875 C 235.023438 70.652344 235.378906 70.351562 235.710938 70.019531 C 236.042969 69.6875 236.34375 69.332031 236.613281 68.953125 C 236.882812 68.570312 237.117188 68.167969 237.320312 67.746094 C 237.523438 67.324219 237.6875 66.890625 237.816406 66.441406 C 237.945312 65.992188 238.035156 65.535156 238.085938 65.070312 C 238.378906 62.109375 238.515625 59.144531 238.492188 56.171875 C 238.46875 59.144531 238.601562 62.109375 238.894531 65.070312 Z M 238.894531 65.070312 " fill-opacity="1" fill-rule="nonzero"/></g><path fill="#f0dfc8" d="M 226.398438 32.253906 C 226.460938 32.824219 226.613281 33.371094 226.863281 33.890625 C 227.113281 34.40625 227.4375 34.871094 227.847656 35.277344 C 228.253906 35.683594 228.714844 36.011719 229.234375 36.257812 C 229.753906 36.507812 230.296875 36.664062 230.867188 36.726562 C 232.675781 36.90625 234.488281 36.988281 236.300781 36.972656 C 234.488281 36.957031 232.675781 37.042969 230.867188 37.222656 C 230.296875 37.285156 229.753906 37.4375 229.234375 37.6875 C 228.714844 37.9375 228.253906 38.265625 227.847656 38.671875 C 227.4375 39.078125 227.113281 39.539062 226.863281 40.058594 C 226.613281 40.578125 226.460938 41.121094 226.398438 41.695312 C 226.214844 43.5 226.132812 45.3125 226.148438 47.125 C 226.164062 45.3125 226.082031 43.5 225.902344 41.695312 C 225.839844 41.121094 225.683594 40.578125 225.433594 40.058594 C 225.1875 39.539062 224.859375 39.078125 224.453125 38.671875 C 224.046875 38.265625 223.582031 37.9375 223.0625 37.6875 C 222.546875 37.4375 222 37.285156 221.429688 37.222656 C 219.621094 37.042969 217.8125 36.957031 215.996094 36.972656 C 217.8125 36.988281 219.621094 36.90625 221.429688 36.726562 C 222 36.664062 222.546875 36.507812 223.0625 36.257812 C 223.582031 36.011719 224.042969 35.683594 224.449219 35.277344 C 224.855469 34.871094 225.183594 34.40625 225.433594 33.890625 C 225.683594 33.371094 225.835938 32.824219 225.898438 32.253906 C 226.082031 30.445312 226.164062 28.636719 226.148438 26.820312 C 226.132812 28.636719 226.214844 30.445312 226.398438 32.253906 Z M 226.398438 32.253906 " fill-opacity="1" fill-rule="nonzero"/><g clip-path="url(#c302e1ef19)"><path fill="#303030" d="M 200.703125 40.101562 C 200.800781 40.976562 200.96875 41.839844 201.210938 42.691406 C 201.453125 43.539062 201.765625 44.359375 202.144531 45.15625 C 202.527344 45.953125 202.972656 46.710938 203.484375 47.429688 C 203.992188 48.152344 204.5625 48.824219 205.183594 49.445312 C 205.808594 50.070312 206.480469 50.636719 207.203125 51.148438 C 207.921875 51.660156 208.679688 52.105469 209.476562 52.484375 C 210.269531 52.867188 211.09375 53.179688 211.941406 53.421875 C 212.789062 53.664062 213.652344 53.832031 214.53125 53.929688 C 220.117188 54.484375 225.714844 54.738281 231.328125 54.695312 C 225.714844 54.648438 220.117188 54.902344 214.53125 55.460938 C 213.652344 55.554688 212.789062 55.722656 211.941406 55.964844 C 211.09375 56.207031 210.269531 56.519531 209.476562 56.902344 C 208.679688 57.285156 207.921875 57.730469 207.203125 58.238281 C 206.480469 58.75 205.808594 59.316406 205.183594 59.941406 C 204.5625 60.566406 203.992188 61.238281 203.484375 61.957031 C 202.972656 62.675781 202.527344 63.4375 202.144531 64.230469 C 201.765625 65.027344 201.453125 65.847656 201.210938 66.699219 C 200.96875 67.546875 200.800781 68.410156 200.703125 69.289062 C 200.148438 74.871094 199.890625 80.472656 199.9375 86.085938 C 199.984375 80.472656 199.730469 74.871094 199.171875 69.289062 C 199.078125 68.410156 198.90625 67.546875 198.664062 66.699219 C 198.421875 65.847656 198.113281 65.027344 197.730469 64.230469 C 197.347656 63.433594 196.902344 62.675781 196.394531 61.957031 C 195.882812 61.238281 195.316406 60.566406 194.691406 59.941406 C 194.066406 59.316406 193.394531 58.75 192.675781 58.238281 C 191.953125 57.730469 191.195312 57.285156 190.402344 56.902344 C 189.605469 56.519531 188.78125 56.207031 187.933594 55.964844 C 187.085938 55.722656 186.222656 55.554688 185.34375 55.460938 C 179.761719 54.902344 174.160156 54.648438 168.546875 54.695312 C 174.160156 54.738281 179.761719 54.484375 185.34375 53.929688 C 186.222656 53.832031 187.085938 53.664062 187.933594 53.421875 C 188.78125 53.179688 189.605469 52.867188 190.402344 52.484375 C 191.195312 52.105469 191.953125 51.65625 192.675781 51.148438 C 193.394531 50.636719 194.066406 50.070312 194.691406 49.445312 C 195.316406 48.824219 195.882812 48.152344 196.390625 47.429688 C 196.902344 46.710938 197.347656 45.953125 197.730469 45.15625 C 198.113281 44.359375 198.421875 43.539062 198.664062 42.691406 C 198.90625 41.839844 199.078125 40.976562 199.171875 40.101562 C 199.730469 34.515625 199.984375 28.917969 199.9375 23.304688 C 199.890625 28.917969 200.148438 34.515625 200.703125 40.101562 Z M 200.703125 40.101562 " fill-opacity="1" fill-rule="nonzero"/></g><g clip-path="url(#b0e9c6ccbd)"><path fill="#303030" d="M 235.75 63.195312 C 235.796875 63.636719 235.882812 64.074219 236.003906 64.503906 C 236.128906 64.933594 236.285156 65.347656 236.480469 65.753906 C 236.671875 66.15625 236.898438 66.539062 237.15625 66.902344 C 237.414062 67.265625 237.699219 67.609375 238.015625 67.921875 C 238.332031 68.238281 238.671875 68.527344 239.039062 68.785156 C 239.402344 69.042969 239.785156 69.269531 240.1875 69.460938 C 240.589844 69.652344 241.007812 69.8125 241.4375 69.933594 C 241.867188 70.058594 242.300781 70.144531 242.746094 70.191406 C 245.574219 70.472656 248.40625 70.601562 251.246094 70.578125 C 248.40625 70.554688 245.574219 70.683594 242.746094 70.964844 C 242.300781 71.015625 241.867188 71.101562 241.4375 71.222656 C 241.007812 71.34375 240.589844 71.503906 240.1875 71.695312 C 239.785156 71.890625 239.402344 72.113281 239.039062 72.371094 C 238.671875 72.628906 238.332031 72.917969 238.015625 73.234375 C 237.699219 73.550781 237.414062 73.890625 237.15625 74.253906 C 236.898438 74.617188 236.671875 75.003906 236.480469 75.40625 C 236.285156 75.808594 236.128906 76.222656 236.003906 76.652344 C 235.882812 77.082031 235.796875 77.519531 235.75 77.964844 C 235.46875 80.789062 235.339844 83.621094 235.363281 86.464844 C 235.386719 83.621094 235.253906 80.789062 234.972656 77.964844 C 234.925781 77.519531 234.839844 77.082031 234.71875 76.652344 C 234.59375 76.222656 234.4375 75.808594 234.242188 75.40625 C 234.050781 75.003906 233.824219 74.617188 233.566406 74.253906 C 233.308594 73.890625 233.023438 73.550781 232.707031 73.234375 C 232.390625 72.917969 232.050781 72.628906 231.6875 72.371094 C 231.320312 72.113281 230.9375 71.890625 230.535156 71.695312 C 230.132812 71.503906 229.714844 71.34375 229.285156 71.222656 C 228.855469 71.101562 228.421875 71.015625 227.976562 70.964844 C 225.148438 70.683594 222.316406 70.554688 219.476562 70.578125 C 222.316406 70.601562 225.148438 70.472656 227.976562 70.191406 C 228.421875 70.144531 228.855469 70.058594 229.285156 69.933594 C 229.714844 69.8125 230.132812 69.65625 230.535156 69.460938 C 230.9375 69.269531 231.320312 69.042969 231.6875 68.785156 C 232.050781 68.527344 232.390625 68.238281 232.707031 67.921875 C 233.023438 67.609375 233.308594 67.265625 233.566406 66.902344 C 233.824219 66.539062 234.050781 66.15625 234.242188 65.753906 C 234.4375 65.347656 234.59375 64.933594 234.71875 64.503906 C 234.839844 64.074219 234.925781 63.636719 234.972656 63.195312 C 235.257812 60.367188 235.386719 57.535156 235.363281 54.695312 C 235.339844 57.535156 235.46875 60.367188 235.75 63.195312 Z M 235.75 63.195312 " fill-opacity="1" fill-rule="nonzero"/></g><path fill="#303030" d="M 223.808594 31.847656 C 223.867188 32.394531 224.015625 32.914062 224.253906 33.410156 C 224.492188 33.90625 224.804688 34.347656 225.191406 34.734375 C 225.582031 35.125 226.023438 35.4375 226.519531 35.671875 C 227.015625 35.910156 227.535156 36.058594 228.082031 36.121094 C 229.808594 36.292969 231.535156 36.371094 233.269531 36.355469 C 231.535156 36.339844 229.808594 36.421875 228.082031 36.59375 C 227.535156 36.652344 227.015625 36.800781 226.519531 37.039062 C 226.023438 37.277344 225.582031 37.589844 225.191406 37.976562 C 224.804688 38.367188 224.492188 38.808594 224.253906 39.304688 C 224.015625 39.796875 223.867188 40.320312 223.808594 40.863281 C 223.636719 42.589844 223.558594 44.320312 223.570312 46.054688 C 223.585938 44.320312 223.507812 42.589844 223.335938 40.863281 C 223.277344 40.320312 223.128906 39.796875 222.890625 39.304688 C 222.652344 38.808594 222.339844 38.367188 221.949219 37.976562 C 221.5625 37.589844 221.121094 37.277344 220.625 37.039062 C 220.128906 36.800781 219.609375 36.652344 219.0625 36.59375 C 217.335938 36.421875 215.605469 36.339844 213.875 36.355469 C 215.609375 36.371094 217.335938 36.292969 219.0625 36.121094 C 219.609375 36.058594 220.128906 35.910156 220.625 35.671875 C 221.121094 35.4375 221.5625 35.121094 221.949219 34.734375 C 222.339844 34.347656 222.652344 33.902344 222.886719 33.410156 C 223.125 32.914062 223.273438 32.394531 223.332031 31.847656 C 223.507812 30.121094 223.585938 28.390625 223.570312 26.65625 C 223.558594 28.390625 223.636719 30.121094 223.808594 31.847656 Z M 223.808594 31.847656 " fill-opacity="1" fill-rule="nonzero"/><path stroke-linecap="butt" transform="matrix(0.897791, -0.136519, 0.136519, 0.897791, 42.588644, 137.855537)" fill="none" stroke-linejoin="miter" d="M 126.217011 29.708946 C 124.459241 32.369852 121.416477 33.495265 118.644827 33.495847 C 115.151075 33.495398 113.936029 30.813186 113.933025 27.027395 C 113.9331 23.507481 115.240069 18.889709 116.347527 15.011719 C 118.644556 7.459667 120.967882 4.484472 122.817281 4.482882 C 124.101081 4.395287 125.025753 5.410436 126.218133 5.409011 C 130.095169 5.406829 133.140202 0.518182 133.229319 -5.389922 C 133.229964 -10.458691 130.187471 -14.42821 123.73958 -14.429721 C 113.575233 -14.426386 101.468577 -7.687251 87.445779 17.604514 C 86.614753 19.092353 85.779277 20.46639 84.94482 21.862337 C 81.542553 18.999816 79.782217 15.125192 79.78512 10.413545 C 79.783178 3.673614 83.931538 1.915743 87.535803 2.276722 C 88.913928 2.455825 89.655518 1.441694 89.564492 0.0660027 C 89.564753 -4.284916 86.433011 -8.611733 79.423597 -8.61161 C 71.557016 -8.611301 64.544492 -3.268674 64.546391 6.447306 C 64.545462 15.666847 70.452856 23.600635 79.964963 28.40165 C 75.815366 33.200653 70.923969 36.268299 65.198181 36.267819 C 60.103249 36.267546 56.139285 33.493651 56.137081 29.416468 C 56.137289 28.78561 55.504623 28.310873 54.760611 28.310862 C 47.368559 28.309363 42.475707 35.793011 42.476816 43.368199 C 42.477103 51.034633 47.550062 58.876343 60.215929 58.874859 C 70.179482 58.875799 79.513117 48.912977 85.871513 37.914708 C 86.975486 35.976716 88.103012 33.855214 89.206985 31.917221 C 92.699904 32.752927 96.485662 33.293788 100.453319 33.496828 C 100.005358 36.356905 99.732182 38.925941 99.731328 41.249223 C 99.732438 48.824411 102.121758 55.000616 108.682804 55.00193 C 121.148524 55.000468 127.415377 37.078956 130.387819 32.009583 C 131.403802 30.249653 127.705068 27.476931 126.217011 29.708946 Z M 101.853845 27.20511 C 98.334928 27.026797 95.200096 26.55446 92.517291 25.74187 C 95.855995 19.72312 99.168559 13.90489 102.865537 9.106677 C 105.548001 5.972896 106.652577 5.318528 107.849209 5.31775 C 108.501976 5.316938 108.952327 5.70304 108.951319 6.62529 C 108.954323 10.411081 105.549099 14.292096 101.853845 27.20511 Z M 131.943082 55.001594 C 144.408801 55.000132 150.697564 37.077601 153.648097 32.009247 C 154.664079 30.249317 150.969598 27.477242 149.481541 29.709257 C 147.540481 32.659912 145.240874 34.420445 142.017252 34.417563 C 136.473953 34.418727 137.219235 29.145569 138.771201 23.803634 C 140.893851 16.024922 144.497423 7.548998 149.567932 -2.705303 C 152.432129 -8.522097 151.148745 -11.384388 147.359348 -11.386283 C 139.875405 -11.384352 135.638083 2.747171 126.308256 29.709768 C 124.457215 34.958365 123.172287 40.776002 123.173637 45.488296 C 123.174976 50.944602 125.382035 55.000281 131.943082 55.001594 Z M 191.590347 29.707776 C 189.741332 32.36786 187.532181 33.676595 185.123517 34.03694 C 186.339055 30.249352 187.060619 26.190855 187.061078 21.953091 C 187.061985 12.533403 183.273661 8.833356 177.00826 8.833489 C 174.889378 8.83326 172.024007 9.850767 169.431999 12.53275 C 168.236792 13.725908 166.569094 13.276522 166.928846 11.969377 C 168.056777 7.642 170.446061 2.544865 172.74547 -2.705167 C 175.519419 -8.701021 174.326282 -11.384252 170.536885 -11.386147 C 165.193734 -11.385006 161.589559 -4.192707 156.518799 9.668501 C 154.466163 15.212764 152.166086 21.955074 149.481541 29.709257 C 144.501819 44.202144 151.513712 55.001478 162.965937 54.998187 C 168.961208 55.000487 175.160342 50.943885 179.780238 44.654402 C 188.547191 44.112255 193.077662 37.552468 195.739245 32.009432 C 196.753616 29.888127 192.695931 28.131158 191.590347 29.707776 Z M 161.769802 30.90343 C 161.769263 26.843904 164.811655 22.315985 169.341458 22.312991 C 172.948365 22.313242 174.413428 24.52441 174.414832 27.204814 C 174.417014 31.081851 171.18902 35.886114 166.568618 35.884033 C 163.052956 35.884604 161.771205 33.583835 161.769802 30.90343 Z M 237.749527 29.708715 C 235.90071 32.481955 234.14397 34.420758 231.39423 34.420321 C 228.892711 34.418469 226.68278 32.8424 226.682209 29.326739 C 226.681057 24.7276 230.831333 17.692308 230.828548 12.531647 C 230.832043 9.847637 229.815479 8.835917 227.966726 8.833255 C 223.254433 8.834604 219.467975 15.394402 215.681661 27.475589 L 215.593047 27.858051 C 214.037212 32.48149 211.174888 34.308739 207.83811 34.306055 C 204.796332 34.30907 203.958684 32.75023 203.961358 30.157465 C 203.960392 24.727322 208.109835 18.527287 208.107883 12.531369 C 208.108912 10.121094 207.294961 8.835617 205.246061 8.832977 C 200.0854 8.835762 195.846137 16.227354 191.586094 29.707129 C 189.738648 35.704637 189.557496 41.159299 189.557059 43.909039 C 189.558168 51.484227 192.691938 54.910703 197.695624 54.910154 C 204.883276 54.911028 209.504826 47.695043 212.547644 41.161397 C 212.369188 42.535269 212.278721 43.731079 212.276913 44.944722 C 212.278833 51.484505 214.759661 54.998785 220.211068 55.001052 C 232.676787 54.999591 238.943641 37.078078 241.920335 32.009352 C 242.936318 30.249422 239.237584 27.4767 237.749527 29.708715 Z M 241.447961 55.001955 C 248.005401 54.998369 249.198426 49.928175 249.201329 45.216528 L 249.200966 41.070009 C 249.199045 32.842054 253.823413 25.178348 259.162311 25.17656 C 261.307356 25.176417 262.679573 26.281376 262.681974 28.783542 C 262.679071 33.49519 258.058156 39.762762 258.058279 46.772176 C 258.060429 52.881249 261.21613 54.818681 265.453894 54.81914 C 272.372063 54.818195 273.682495 49.748451 273.679293 45.849504 C 273.679556 43.186758 273.027796 42.265319 273.027039 39.580662 C 273.026095 32.662494 277.646209 24.998141 282.989361 24.997 C 285.108243 24.997229 286.506623 26.101816 286.506393 28.220698 C 286.505145 32.005842 282.629437 38.208343 282.629559 45.217757 C 282.631523 50.469663 284.657901 54.998227 290.56618 55.000351 C 303.031899 54.99889 309.320016 37.080611 312.271195 32.008005 C 313.287177 30.248075 309.588444 27.475353 308.100387 29.707368 C 306.251569 32.480607 304.516739 34.418391 301.74509 34.418973 C 298.590803 34.417933 297.211877 32.84205 297.214759 29.618428 C 297.212588 24.997379 300.167789 22.044302 300.167437 17.153771 C 300.165266 12.532722 297.483326 8.652837 290.295028 8.656215 C 285.852864 8.655131 281.884353 10.775373 278.370874 14.652981 C 276.995807 16.227779 276.340409 15.845306 276.069501 14.651107 C 275.146056 11.338838 272.555142 8.834644 268.042996 8.835972 C 263.966459 8.833923 260.290984 10.772475 256.862864 14.088736 C 253.912934 17.06437 251.881888 15.485046 251.883948 12.352669 C 251.882358 10.503269 251.139365 8.836996 249.020483 8.836767 C 245.322331 8.835694 241.535457 18.345379 237.749527 29.708715 C 235.179135 37.284463 234.706996 43.908795 234.706735 48.259714 C 234.704664 52.136104 237.118951 55.000674 241.447961 55.001955 Z M 241.447961 55.001955 " stroke="#f0dfc8" stroke-width="6.925335" stroke-opacity="1" stroke-miterlimit="4"/><path stroke-linecap="butt" transform="matrix(0.897791, -0.136519, 0.136519, 0.897791, 42.588644, 137.855537)" fill="none" stroke-linejoin="miter" d="M 38.102731 132.106573 C 52.326605 132.1027 62.015675 123.607988 69.774598 108.006173 C 70.694436 106.249027 67.0912 103.477774 65.625053 105.70877 C 62.467666 110.306222 55.728536 111.704943 50.002747 111.704463 C 37.833319 111.703118 31.923273 104.87407 31.926427 96.555517 C 31.926534 87.427221 38.280449 78.547187 46.690894 78.546911 C 51.851555 78.544125 54.081697 82.333554 49.283324 91.484934 C 48.265522 93.514347 49.734048 95.273542 52.323207 95.271316 C 59.154383 95.270196 68.849339 87.337653 68.850092 76.516932 C 68.847371 68.58037 63.03198 63.33206 51.310919 63.32928 C 32.284153 63.329428 15.201227 83.165316 15.197869 105.620105 C 15.197031 124.081096 24.980639 132.103947 38.102731 132.106573 Z M 109.565601 105.707365 C 107.356845 108.930582 104.855282 110.216608 102.170625 110.217365 L 101.539767 110.217157 C 102.463902 107.17278 102.914504 103.951974 102.917385 100.728352 C 102.914719 89.071728 97.010504 84.836738 89.435963 84.833595 C 74.760116 84.834005 64.052731 101.627783 64.054993 115.490282 C 64.052442 125.092461 70.050489 130.999434 78.347779 130.999355 C 85.287211 131.001643 91.825809 126.944449 96.445705 120.654967 L 97.551092 120.653366 C 106.52306 120.651457 111.030184 113.644321 113.714499 108.009021 C 114.728871 105.887716 110.671185 104.130747 109.565601 105.707365 Z M 83.620976 111.886866 C 80.105961 111.883184 78.81931 109.586021 78.818553 106.901364 C 78.817368 102.846091 81.860406 98.313919 86.393816 98.315825 C 90.000722 98.316076 91.466432 100.522991 91.462937 103.207001 C 91.465119 107.084037 88.242024 111.884695 83.620976 111.886866 Z M 115.283166 130.998719 C 127.748239 131.00151 134.037002 113.078978 136.992434 108.007019 C 138.003517 106.250695 134.309036 103.478619 132.820979 105.710635 C 130.879919 108.66129 128.580959 110.41757 125.360942 110.419588 C 119.813391 110.420105 120.558673 105.146946 122.115538 99.801405 C 124.233289 92.026299 127.836862 83.550375 132.912269 73.292469 C 135.771567 67.479281 134.488183 64.61699 130.703038 64.615741 C 123.219742 64.61342 118.981774 78.749195 109.648341 105.706893 C 107.800905 110.960389 106.515978 116.778026 106.513722 121.485421 C 106.51506 126.941727 108.721473 131.001658 115.283166 130.998719 Z M 138.551949 130.999676 C 151.017669 130.998215 157.305785 113.079936 160.256964 108.00733 C 161.2723 106.251652 157.574213 103.474677 156.086156 105.706693 C 154.148702 108.662247 151.849741 110.418528 148.625472 110.419899 C 143.082174 110.421062 143.82385 105.143004 145.380068 99.801716 C 147.497819 92.02661 151.105644 83.551333 156.1768 73.29278 C 159.04035 67.480238 157.757612 64.613695 153.967568 64.616052 C 146.484272 64.613731 142.246304 78.749506 132.912871 105.707204 C 131.065435 110.9607 129.780508 116.778337 129.782504 121.486378 C 129.779591 126.942038 131.990903 130.998363 138.551949 130.999676 Z M 171.327412 131.001716 C 182.035624 130.998414 191.817573 123.066046 199.954848 108.009071 C 200.970831 106.249141 197.27635 103.477066 195.788293 105.709081 C 191.636833 112.065444 184.155927 115.309301 177.890526 115.309435 C 172.612457 115.311771 168.284467 113.644228 168.287348 110.420605 C 168.28555 109.202063 169.20962 108.933589 169.863998 109.294152 C 171.981072 110.508024 174.463116 110.781024 177.056527 110.779445 C 186.093578 110.77873 191.909502 103.204845 191.911813 96.465561 C 191.910682 90.378397 188.145637 84.837083 179.556954 84.836363 C 153.046892 84.834189 145.383125 130.998556 171.327412 131.001716 Z M 174.667218 103.859228 C 171.691168 103.859185 170.313887 102.100812 170.313294 100.073175 C 170.315146 97.571655 172.524516 94.88805 176.131423 94.888301 C 178.994317 94.888541 180.367346 96.646268 180.367938 98.673905 C 180.367084 100.997187 178.247962 103.859852 174.667218 103.859228 Z M 209.924809 131.001452 C 220.724266 130.998972 230.59746 123.067426 238.735382 108.006199 C 239.746465 106.249875 236.051984 103.477799 234.585837 105.708796 C 225.906548 118.264218 207.71505 117.521186 207.717666 105.143106 C 207.715495 100.522057 210.105141 96.195097 214.25166 96.194734 C 217.027562 96.194799 218.039841 97.749736 218.042428 99.420898 C 218.04039 102.753423 215.923119 103.114568 215.922276 104.693837 C 215.923054 105.89047 217.497853 107.265536 220.722122 107.264165 C 224.690403 107.262805 230.144516 104.128442 230.145402 96.196779 C 230.143449 90.20086 226.269151 84.834376 217.410338 84.836088 C 202.826383 84.833068 193.943451 100.072521 193.94145 112.990214 C 193.943151 122.593039 198.834606 130.99888 209.924809 131.001452 Z M 241.782922 130.998878 C 255.083899 130.998249 262.185385 113.28197 264.954051 108.007572 C 265.878142 106.251073 262.274731 103.566812 260.787496 105.707582 C 258.959766 108.571047 255.98511 110.307248 252.308867 110.305156 C 246.856814 110.307142 243.992735 106.251627 245.930637 99.802322 C 247.691069 93.604491 248.231679 93.425639 256.816756 93.421461 C 260.514908 93.422534 261.620194 84.923495 259.139937 84.924877 L 254.340651 84.926051 C 252.578891 84.923563 252.849217 83.346113 254.246412 80.395425 C 257.110609 74.578632 255.892307 71.717535 252.489801 71.717909 C 250.166519 71.717055 248.138696 72.548652 245.930729 77.912661 C 244.647653 81.228779 241.692441 84.925868 236.328027 84.923776 C 234.209145 84.923547 234.29969 92.025028 239.642841 92.023886 C 237.341153 98.404821 235.314855 103.86172 233.737757 108.481925 C 229.587635 120.294593 231.436084 131.000569 241.782922 130.998878 Z M 304.745054 105.708764 C 302.536298 108.931981 300.034735 110.218007 297.354978 110.215158 L 296.72412 110.21495 C 297.647608 107.174826 298.098856 103.949768 298.097485 100.725498 C 298.098425 89.073773 292.190604 84.833885 284.615416 84.834994 C 269.943822 84.83605 259.236437 101.629829 259.234447 115.491681 C 259.236148 125.094507 265.229942 131.000833 273.527233 131.000754 C 280.471564 130.999436 287.005909 126.941596 291.630058 120.65276 L 292.730545 120.654765 C 301.702513 120.652856 306.214537 113.642115 308.894599 108.006167 C 309.908324 105.889115 305.850638 104.132146 304.745054 105.708764 Z M 278.801076 111.884012 C 275.285414 111.884583 273.998764 109.58742 274.002259 106.90341 C 274.001721 102.843884 277.044112 98.315964 281.573916 98.312971 C 285.180822 98.313222 286.645886 100.52439 286.647289 103.204794 C 286.645219 107.081184 283.421478 111.886094 278.801076 111.884012 Z M 341.210811 105.70633 C 339.361994 108.47957 337.605254 110.418373 334.855514 110.417936 C 330.682833 110.418671 329.128311 108.481063 329.130985 105.888298 C 329.127213 100.161863 333.097564 96.284113 333.094582 91.010297 C 333.095051 86.028521 324.216453 80.122973 315.535878 80.125683 C 310.554102 80.125213 307.332826 84.656388 307.331578 88.441532 C 307.332127 91.757046 308.525932 92.948001 310.375495 93.603431 C 308.796786 97.862261 306.495908 103.207791 304.740802 105.708117 C 303.546582 107.46705 307.692038 110.420826 308.907357 108.008107 C 310.375356 104.963763 313.415982 98.673437 315.08369 95.002467 C 318.78227 96.374157 319.977029 98.67475 319.975374 99.601253 C 319.97919 104.039811 313.507845 112.719249 313.507125 121.307932 C 313.508474 126.020226 316.101416 131.000423 323.672352 130.998667 C 336.137424 131.001458 342.404278 113.079946 345.359709 108.007987 C 346.396955 106.25129 342.698221 103.478567 341.210811 105.70633 Z M 341.210811 105.70633 " stroke="#f0dfc8" stroke-width="6.925335" stroke-opacity="1" stroke-miterlimit="4"/><g fill="#303030" fill-opacity="1"><g transform="translate(90.722237, 181.056515)"><g><path d="M 69.242188 -33.765625 C 68.035156 -31.125 65.449219 -29.714844 62.964844 -29.335938 C 59.8125 -28.855469 58.371094 -31.097656 57.851562 -34.496094 C 57.375 -37.644531 57.90625 -41.964844 58.371094 -45.597656 C 59.410156 -52.710938 61.078125 -55.679688 62.734375 -55.929688 C 63.882812 -56.191406 64.851562 -55.402344 65.929688 -55.566406 C 69.410156 -56.097656 71.476562 -60.90625 70.753906 -66.222656 C 70.058594 -70.785156 66.78125 -73.933594 60.980469 -73.050781 C 51.863281 -71.664062 41.921875 -63.960938 32.777344 -39.332031 C 32.234375 -37.890625 31.675781 -36.535156 31.117188 -35.179688 C 27.660156 -37.28125 25.558594 -40.523438 24.914062 -44.75 C 23.992188 -50.800781 27.484375 -52.945312 30.769531 -53.105469 C 32.035156 -53.128906 32.5625 -54.140625 32.289062 -55.371094 C 31.695312 -59.269531 28.285156 -62.734375 21.984375 -61.777344 C 14.941406 -60.707031 9.371094 -54.941406 10.695312 -46.234375 C 11.953125 -37.945312 18.34375 -31.625 27.539062 -28.613281 C 24.460938 -23.734375 20.484375 -20.332031 15.347656 -19.550781 C 10.785156 -18.855469 6.84375 -20.800781 6.289062 -24.449219 C 6.203125 -25.027344 5.558594 -25.355469 4.894531 -25.253906 C -1.734375 -24.246094 -5.109375 -16.863281 -4.074219 -10.066406 C -3.027344 -3.1875 2.601562 3.167969 13.957031 1.441406 C 22.910156 0.078125 29.921875 -10.148438 34.140625 -20.882812 C 34.871094 -22.773438 35.574219 -24.832031 36.304688 -26.722656 C 39.570312 -26.457031 43.042969 -26.476562 46.632812 -26.851562 C 46.609375 -24.21875 46.714844 -21.859375 47.027344 -19.789062 C 48.0625 -12.992188 51.0625 -7.765625 56.949219 -8.660156 C 68.136719 -10.359375 71.328125 -27.300781 73.289062 -32.261719 C 73.960938 -33.976562 70.265625 -35.957031 69.242188 -33.765625 Z M 47.019531 -32.675781 C 43.84375 -32.363281 40.960938 -32.351562 38.445312 -32.730469 C 40.609375 -38.574219 42.800781 -44.25 45.460938 -49.0625 C 47.4375 -52.246094 48.34375 -52.980469 49.421875 -53.140625 C 50 -53.230469 50.464844 -52.960938 50.589844 -52.132812 C 51.109375 -48.734375 48.570312 -44.785156 47.019531 -32.675781 Z M 47.019531 -32.675781 "/></g></g></g><g fill="#303030" fill-opacity="1"><g transform="translate(161.511387, 170.292208)"><g><path d="M 7.046875 -1.070312 C 18.238281 -2.773438 21.429688 -19.710938 23.386719 -24.675781 C 24.058594 -26.386719 20.367188 -28.371094 19.34375 -26.179688 C 18.003906 -23.261719 16.171875 -21.371094 13.269531 -20.929688 C 8.296875 -20.175781 8.242188 -25 8.917969 -30.023438 C 9.765625 -37.273438 11.839844 -45.394531 15 -55.285156 C 16.777344 -60.898438 15.226562 -63.292969 11.824219 -62.777344 C 5.113281 -61.753906 3.226562 -48.492188 -1.464844 -23.015625 C -2.402344 -18.039062 -2.769531 -12.640625 -2.128906 -8.410156 C -1.382812 -3.519531 1.160156 -0.175781 7.046875 -1.070312 Z M 7.046875 -1.070312 "/></g></g></g><g fill="#303030" fill-opacity="1"><g transform="translate(182.399991, 167.115854)"><g><path d="M 36.253906 -28.75 C 34.960938 -26.09375 33.148438 -24.632812 31.042969 -23.972656 C 31.601562 -27.535156 31.710938 -31.28125 31.132812 -35.097656 C 29.847656 -43.550781 25.941406 -46.351562 20.304688 -45.492188 C 18.398438 -45.203125 15.96875 -43.898438 14.011719 -41.144531 C 13.097656 -39.902344 11.542969 -40.089844 11.699219 -41.300781 C 12.101562 -45.347656 13.5625 -50.234375 14.917969 -55.273438 C 16.585938 -61.039062 15.140625 -63.28125 11.742188 -62.765625 C 6.933594 -62.03125 4.6875 -55.074219 2.015625 -41.949219 C 0.949219 -36.699219 -0.203125 -30.332031 -1.546875 -23.003906 C -4.042969 -9.308594 3.730469 -0.566406 14.007812 -2.128906 C 19.398438 -2.949219 24.394531 -7.441406 27.683594 -13.707031 C 35.484375 -15.402344 38.648438 -21.90625 40.296875 -27.246094 C 40.917969 -29.289062 37.03125 -30.3125 36.253906 -28.75 Z M 9.640625 -23.601562 C 9.085938 -27.25 11.203125 -31.726562 15.265625 -32.34375 C 18.5 -32.835938 20.128906 -31.046875 20.492188 -28.644531 C 21.023438 -25.164062 18.777344 -20.410156 14.632812 -19.78125 C 11.484375 -19.300781 10.007812 -21.199219 9.640625 -23.601562 Z M 9.640625 -23.601562 "/></g></g></g><g fill="#303030" fill-opacity="1"><g transform="translate(220.198419, 161.368167)"><g><path d="M 39.898438 -29.304688 C 38.621094 -26.566406 37.308594 -24.585938 34.824219 -24.207031 C 32.585938 -23.867188 30.378906 -24.972656 29.902344 -28.125 C 29.273438 -32.269531 32.042969 -39.136719 31.335938 -43.777344 C 30.972656 -46.183594 29.921875 -46.953125 28.265625 -46.703125 C 24.035156 -46.058594 21.53125 -39.65625 19.785156 -28.28125 L 19.753906 -27.9375 C 18.972656 -23.578125 16.65625 -21.53125 13.671875 -21.078125 C 10.9375 -20.660156 9.976562 -21.957031 9.625 -24.277344 C 8.878906 -29.167969 11.765625 -35.289062 10.945312 -40.675781 C 10.617188 -42.832031 9.695312 -43.878906 7.871094 -43.601562 C 3.230469 -42.894531 0.425781 -35.683594 -1.546875 -23.003906 C -2.386719 -17.363281 -1.808594 -12.445312 -1.429688 -9.960938 C -0.394531 -3.164062 2.886719 -0.523438 7.363281 -1.203125 C 13.832031 -2.1875 16.992188 -9.285156 18.832031 -15.585938 C 18.855469 -14.316406 18.9375 -13.226562 19.101562 -12.148438 C 19.996094 -6.261719 22.710938 -3.453125 27.601562 -4.199219 C 38.792969 -5.898438 41.984375 -22.835938 43.945312 -27.800781 C 44.617188 -29.511719 40.921875 -31.496094 39.898438 -29.304688 Z M 39.898438 -29.304688 "/></g></g></g><g fill="#303030" fill-opacity="1"><g transform="translate(261.644053, 155.065879)"><g><path d="M 5.222656 -0.792969 C 11.109375 -1.6875 11.492188 -6.410156 10.847656 -10.640625 L 10.28125 -14.371094 C 9.160156 -21.746094 12.257812 -29.257812 17.066406 -29.988281 C 18.972656 -30.277344 20.367188 -29.472656 20.707031 -27.234375 C 21.351562 -23.007812 18.0625 -16.742188 19.019531 -10.441406 C 19.851562 -4.96875 22.9375 -3.65625 26.75 -4.238281 C 32.964844 -5.183594 33.433594 -9.917969 32.902344 -13.398438 C 32.539062 -15.804688 31.832031 -16.542969 31.464844 -18.949219 C 30.519531 -25.164062 33.621094 -32.675781 38.425781 -33.40625 C 40.335938 -33.695312 41.730469 -32.890625 42.019531 -30.984375 C 42.535156 -27.585938 39.898438 -21.503906 40.855469 -15.203125 C 41.574219 -10.476562 44.015625 -6.691406 49.320312 -7.5 C 60.511719 -9.203125 63.703125 -26.140625 65.664062 -31.101562 C 66.335938 -32.816406 62.640625 -34.796875 61.617188 -32.609375 C 60.335938 -29.867188 59.027344 -27.886719 56.539062 -27.511719 C 53.722656 -27.082031 52.265625 -28.300781 51.824219 -31.203125 C 51.191406 -35.347656 53.441406 -38.402344 52.773438 -42.796875 C 52.144531 -46.941406 49.210938 -50.058594 42.746094 -49.074219 C 38.765625 -48.46875 35.492188 -46.019531 32.871094 -42.058594 C 31.84375 -40.460938 31.210938 -40.707031 30.796875 -41.746094 C 29.515625 -44.601562 26.855469 -46.488281 22.792969 -45.871094 C 19.144531 -45.316406 16.09375 -43.070312 13.480469 -39.621094 C 11.230469 -36.566406 9.195312 -37.695312 8.765625 -40.515625 C 8.511719 -42.171875 7.625 -43.5625 5.71875 -43.273438 C 2.402344 -42.769531 0.300781 -33.714844 -1.546875 -23.003906 C -2.835938 -15.851562 -2.339844 -9.820312 -1.75 -5.925781 C -1.21875 -2.445312 1.328125 -0.203125 5.222656 -0.792969 Z M 5.222656 -0.792969 "/></g></g></g><g fill="#303030" fill-opacity="1"><g transform="translate(71.386455, 253.80654)"><g><path d="M 23.445312 -2.546875 C 36.210938 -4.488281 43.753906 -13.4375 48.585938 -28.503906 C 49.175781 -30.207031 45.566406 -32.203125 44.542969 -30.011719 C 42.351562 -25.4375 36.492188 -23.273438 31.351562 -22.492188 C 20.410156 -20.828125 14.171875 -26.15625 13.039062 -33.617188 C 11.789062 -41.824219 16.300781 -50.652344 23.84375 -51.796875 C 28.484375 -52.503906 30.992188 -49.40625 27.929688 -40.546875 C 27.292969 -38.582031 28.859375 -37.210938 31.179688 -37.5625 C 37.316406 -38.496094 44.933594 -46.949219 43.460938 -56.644531 C 42.375 -63.773438 36.433594 -67.707031 25.90625 -66.105469 C 8.832031 -63.507812 -3.792969 -43.355469 -0.730469 -23.210938 C 1.789062 -6.632812 11.671875 -0.757812 23.445312 -2.546875 Z M 23.445312 -2.546875 "/></g></g></g><g fill="#303030" fill-opacity="1"><g transform="translate(117.474008, 246.798396)"><g><path d="M 37.910156 -29.003906 C 36.363281 -25.796875 34.300781 -24.296875 31.894531 -23.933594 L 31.316406 -23.84375 C 31.730469 -26.707031 31.703125 -29.667969 31.261719 -32.570312 C 29.671875 -43.015625 23.789062 -46.023438 16.992188 -44.988281 C 3.808594 -42.984375 -3.511719 -26.4375 -1.621094 -14 C -0.308594 -5.378906 5.886719 -0.894531 13.347656 -2.03125 C 19.5625 -2.976562 24.894531 -7.515625 28.179688 -13.785156 L 29.175781 -13.933594 C 37.214844 -15.15625 40.320312 -22.074219 41.957031 -27.496094 C 42.578125 -29.542969 38.691406 -30.5625 37.910156 -29.003906 Z M 15.460938 -19.90625 C 12.3125 -19.425781 10.835938 -21.324219 10.46875 -23.726562 C 9.914062 -27.375 12.035156 -31.851562 16.09375 -32.46875 C 19.328125 -32.960938 20.957031 -31.175781 21.324219 -28.769531 C 21.851562 -25.289062 19.605469 -20.535156 15.460938 -19.90625 Z M 15.460938 -19.90625 "/></g></g></g><g fill="#303030" fill-opacity="1"><g transform="translate(156.930258, 240.798617)"><g><path d="M 7.046875 -1.070312 C 18.238281 -2.773438 21.429688 -19.710938 23.386719 -24.675781 C 24.058594 -26.386719 20.367188 -28.371094 19.34375 -26.179688 C 18.003906 -23.261719 16.171875 -21.371094 13.269531 -20.929688 C 8.296875 -20.175781 8.242188 -25 8.917969 -30.023438 C 9.765625 -37.273438 11.839844 -45.394531 15 -55.285156 C 16.777344 -60.898438 15.226562 -63.292969 11.824219 -62.777344 C 5.113281 -61.753906 3.226562 -48.492188 -1.464844 -23.015625 C -2.402344 -18.039062 -2.769531 -12.640625 -2.128906 -8.410156 C -1.382812 -3.519531 1.160156 -0.175781 7.046875 -1.070312 Z M 7.046875 -1.070312 "/></g></g></g><g fill="#303030" fill-opacity="1"><g transform="translate(177.818863, 237.622264)"><g><path d="M 7.046875 -1.070312 C 18.238281 -2.773438 21.429688 -19.710938 23.386719 -24.675781 C 24.058594 -26.386719 20.367188 -28.371094 19.34375 -26.179688 C 18.003906 -23.261719 16.171875 -21.371094 13.269531 -20.929688 C 8.296875 -20.175781 8.242188 -25 8.917969 -30.023438 C 9.765625 -37.273438 11.839844 -45.394531 15 -55.285156 C 16.777344 -60.898438 15.226562 -63.292969 11.824219 -62.777344 C 5.113281 -61.753906 3.226562 -48.492188 -1.464844 -23.015625 C -2.402344 -18.039062 -2.769531 -12.640625 -2.128906 -8.410156 C -1.382812 -3.519531 1.160156 -0.175781 7.046875 -1.070312 Z M 7.046875 -1.070312 "/></g></g></g><g fill="#303030" fill-opacity="1"><g transform="translate(198.707467, 234.44591)"><g><path d="M 15.582031 -2.371094 C 25.199219 -3.832031 32.902344 -12.296875 38.140625 -26.917969 C 38.8125 -28.632812 35.121094 -30.613281 34.097656 -28.421875 C 31.238281 -22.136719 24.964844 -18.214844 19.328125 -17.355469 C 14.601562 -16.636719 10.480469 -17.539062 10.039062 -20.4375 C 9.875 -21.515625 10.664062 -21.890625 11.296875 -21.648438 C 13.367188 -20.859375 15.640625 -20.953125 17.960938 -21.304688 C 26.085938 -22.539062 30.273438 -30.132812 29.355469 -36.183594 C 28.523438 -41.652344 24.367188 -46.109375 16.660156 -44.9375 C -7.132812 -41.320312 -7.710938 1.171875 15.582031 -2.371094 Z M 14.863281 -27.195312 C 12.210938 -26.789062 10.726562 -28.175781 10.449219 -30 C 10.109375 -32.238281 11.734375 -34.945312 14.964844 -35.4375 C 17.535156 -35.828125 19.019531 -34.441406 19.296875 -32.617188 C 19.609375 -30.546875 18.09375 -27.6875 14.863281 -27.195312 Z M 14.863281 -27.195312 "/></g></g></g><g fill="#303030" fill-opacity="1"><g transform="translate(234.35071, 229.025944)"><g><path d="M 14.589844 -2.21875 C 24.289062 -3.691406 32.074219 -12.171875 37.3125 -26.792969 C 37.984375 -28.503906 34.292969 -30.488281 33.269531 -28.296875 C 27.191406 -15.839844 10.757812 -14.019531 9.070312 -25.125 C 8.441406 -29.269531 10.003906 -33.496094 13.734375 -34.0625 C 16.21875 -34.441406 17.347656 -33.167969 17.574219 -31.675781 C 18.027344 -28.691406 16.171875 -28.070312 16.386719 -26.664062 C 16.546875 -25.585938 18.148438 -24.554688 21.046875 -24.996094 C 24.613281 -25.539062 29.074219 -29.101562 27.992188 -36.230469 C 27.171875 -41.617188 22.957031 -45.894531 15 -44.6875 C 1.902344 -42.695312 -3.972656 -27.808594 -2.210938 -16.203125 C -0.898438 -7.582031 4.640625 -0.707031 14.589844 -2.21875 Z M 14.589844 -2.21875 "/></g></g></g><g fill="#303030" fill-opacity="1"><g transform="translate(269.165042, 223.732022)"><g><path d="M 8.371094 -1.273438 C 20.308594 -3.089844 24.269531 -19.972656 26.039062 -25.078125 C 26.628906 -26.777344 23.03125 -28.691406 21.996094 -26.582031 C 20.726562 -23.761719 18.3125 -21.78125 15 -21.277344 C 10.109375 -20.535156 6.984375 -23.789062 7.84375 -29.859375 C 8.574219 -35.652344 9.042969 -35.894531 16.753906 -37.066406 C 20.070312 -37.570312 19.90625 -45.347656 17.667969 -45.007812 L 13.355469 -44.351562 C 11.78125 -44.113281 11.816406 -45.558594 12.65625 -48.398438 C 14.429688 -54.011719 12.960938 -56.417969 9.894531 -55.953125 C 7.824219 -55.636719 6.113281 -54.613281 4.855469 -49.503906 C 4.148438 -46.34375 2 -42.625 -2.808594 -41.894531 C -4.714844 -41.601562 -3.660156 -35.234375 1.144531 -35.964844 C -0.0546875 -29.929688 -1.136719 -24.761719 -1.914062 -20.402344 C -4.03125 -9.226562 -0.910156 0.136719 8.371094 -1.273438 Z M 8.371094 -1.273438 "/></g></g></g><g fill="#303030" fill-opacity="1"><g transform="translate(292.706167, 220.152322)"><g><path d="M 37.910156 -29.003906 C 36.363281 -25.796875 34.300781 -24.296875 31.894531 -23.933594 L 31.316406 -23.84375 C 31.730469 -26.707031 31.703125 -29.667969 31.261719 -32.570312 C 29.671875 -43.015625 23.789062 -46.023438 16.992188 -44.988281 C 3.808594 -42.984375 -3.511719 -26.4375 -1.621094 -14 C -0.308594 -5.378906 5.886719 -0.894531 13.347656 -2.03125 C 19.5625 -2.976562 24.894531 -7.515625 28.179688 -13.785156 L 29.175781 -13.933594 C 37.214844 -15.15625 40.320312 -22.074219 41.957031 -27.496094 C 42.578125 -29.542969 38.691406 -30.5625 37.910156 -29.003906 Z M 15.460938 -19.90625 C 12.3125 -19.425781 10.835938 -21.324219 10.46875 -23.726562 C 9.914062 -27.375 12.035156 -31.851562 16.09375 -32.46875 C 19.328125 -32.960938 20.957031 -31.175781 21.324219 -28.769531 C 21.851562 -25.289062 19.605469 -20.535156 15.460938 -19.90625 Z M 15.460938 -19.90625 "/></g></g></g><g fill="#303030" fill-opacity="1"><g transform="translate(332.162404, 214.152546)"><g><path d="M 31.195312 -27.980469 C 29.914062 -25.242188 28.605469 -23.261719 26.117188 -22.882812 C 22.386719 -22.316406 20.714844 -23.84375 20.363281 -26.164062 C 19.582031 -31.304688 22.617188 -35.328125 21.898438 -40.050781 C 21.214844 -44.527344 12.453125 -48.625 4.660156 -47.4375 C 0.183594 -46.757812 -2.101562 -42.253906 -1.582031 -38.855469 C -1.128906 -35.871094 0.113281 -34.957031 1.859375 -34.628906 C 1.027344 -30.601562 -0.3125 -25.480469 -1.546875 -23.003906 C -2.386719 -21.265625 1.75 -19.179688 2.5 -21.496094 C 3.410156 -24.433594 5.285156 -30.488281 6.273438 -34.03125 C 9.78125 -33.289062 11.171875 -31.382812 11.296875 -30.554688 C 11.902344 -26.574219 7.285156 -17.898438 8.457031 -10.191406 C 9.101562 -5.964844 12.101562 -1.839844 18.898438 -2.875 C 30.089844 -4.574219 33.28125 -21.515625 35.242188 -26.476562 C 35.914062 -28.191406 32.21875 -30.171875 31.195312 -27.980469 Z M 31.195312 -27.980469 "/></g></g></g></svg>